<svg xmlns="http://www.w3.org/2000/svg" xmlns:xlink="http://www.w3.org/1999/xlink" fill="none" version="1.1" width="695" height="506" viewBox="0 0 695 506"><defs><linearGradient x1="0.5" y1="-3.0616171314629196e-17" x2="0.5" y2="1" id="master_svg0_0_463"><stop offset="0%" stop-color="#FACA10" stop-opacity="1"/><stop offset="100%" stop-color="#FFF3C3" stop-opacity="1"/></linearGradient><linearGradient x1="0.5" y1="-3.0616171314629196e-17" x2="0.5" y2="1" id="master_svg1_0_463"><stop offset="0%" stop-color="#FACA10" stop-opacity="1"/><stop offset="100%" stop-color="#FFF3C3" stop-opacity="1"/></linearGradient><filter id="master_svg2_0_469" filterUnits="objectBoundingBox" color-interpolation-filters="sRGB" x="-40" y="-17" width="522" height="381"><feFlood flood-opacity="0" result="BackgroundImageFix"/><feColorMatrix in="SourceAlpha" type="matrix" values="0 0 0 0 0 0 0 0 0 0 0 0 0 0 0 0 0 0 127 0"/><feOffset dy="23" dx="0"/><feGaussianBlur stdDeviation="10"/><feColorMatrix type="matrix" values="0 0 0 0 0 0 0 0 0 0 0 0 0 0 0 0 0 0 0.05000000074505806 0"/><feBlend mode="normal" in2="BackgroundImageFix" result="effect1_dropShadow"/><feBlend mode="normal" in="SourceGraphic" in2="effect1_dropShadow" result="shape"/></filter><linearGradient x1="0.5" y1="-3.0616171314629196e-17" x2="0.5" y2="1" id="master_svg3_0_463"><stop offset="0%" stop-color="#FACA10" stop-opacity="1"/><stop offset="100%" stop-color="#FFF3C3" stop-opacity="1"/></linearGradient><linearGradient x1="0.5" y1="-3.0616171314629196e-17" x2="0.5" y2="1" id="master_svg4_0_463"><stop offset="0%" stop-color="#FACA10" stop-opacity="1"/><stop offset="100%" stop-color="#FFF3C3" stop-opacity="1"/></linearGradient><linearGradient x1="0.5" y1="-3.0616171314629196e-17" x2="0.5" y2="1" id="master_svg5_0_463"><stop offset="0%" stop-color="#FACA10" stop-opacity="1"/><stop offset="100%" stop-color="#FFF3C3" stop-opacity="1"/></linearGradient><linearGradient x1="0.5" y1="-3.0616171314629196e-17" x2="0.5" y2="1" id="master_svg6_0_463"><stop offset="0%" stop-color="#FACA10" stop-opacity="1"/><stop offset="100%" stop-color="#FFF3C3" stop-opacity="1"/></linearGradient><linearGradient x1="0.5" y1="-3.0616171314629196e-17" x2="0.5" y2="1" id="master_svg7_0_463"><stop offset="0%" stop-color="#FACA10" stop-opacity="1"/><stop offset="100%" stop-color="#FFF3C3" stop-opacity="1"/></linearGradient><linearGradient x1="0.5" y1="-3.0616171314629196e-17" x2="0.5" y2="1" id="master_svg8_0_463"><stop offset="0%" stop-color="#FACA10" stop-opacity="1"/><stop offset="100%" stop-color="#FFF3C3" stop-opacity="1"/></linearGradient><linearGradient x1="0.5" y1="-3.0616171314629196e-17" x2="0.5" y2="1" id="master_svg9_0_463"><stop offset="0%" stop-color="#FACA10" stop-opacity="1"/><stop offset="100%" stop-color="#FFF3C3" stop-opacity="1"/></linearGradient><filter id="master_svga_0_502" filterUnits="objectBoundingBox" color-interpolation-filters="sRGB" x="-106" y="-61" width="369" height="415"><feFlood flood-opacity="0" result="BackgroundImageFix"/><feColorMatrix in="SourceAlpha" type="matrix" values="0 0 0 0 0 0 0 0 0 0 0 0 0 0 0 0 0 0 127 0"/><feOffset dy="23" dx="-22"/><feGaussianBlur stdDeviation="21"/><feColorMatrix type="matrix" values="0 0 0 0 0 0 0 0 0 0 0 0 0 0 0 0 0 0 0.05000000074505806 0"/><feBlend mode="normal" in2="BackgroundImageFix" result="effect1_dropShadow"/><feBlend mode="normal" in="SourceGraphic" in2="effect1_dropShadow" result="shape"/></filter></defs><g><g transform="matrix(0.6253571510314941,-0.7803385257720947,0.5000703930854797,0.8659845590591431,-18.324552575635153,90.76329652165077)"><g transform="matrix(0.9824085831642151,0.18674418330192566,0.17824237048625946,0.9839863181114197,-17.83346986173308,-16.447117847511095)"><path d="M146.01699628295898,109.85169258154296C120.04199628295899,111.32518358154297,103.98099628295898,122.79603358154297,97.97891528295898,143.44593358154296C95.41660628295898,152.26143358154297,103.05691628295898,160.05903358154296,112.23719628295899,160.05903358154296C112.23719628295899,160.05903358154296,112.23719628295899,160.05903358154296,112.23719628295899,160.05903358154296C120.97239628295898,160.05903358154296,127.44659628295898,152.02773358154298,133.586496282959,145.81443358154297C136.719396282959,142.64403358154297,141.09609628295897,140.53673358154296,146.57329628295898,139.92383358154297C158.25649628295898,138.87783358154297,169.38329628295898,141.49283358154298,172.72139628295898,148.81473358154295C176.337596282959,156.92113358154296,168.270596282959,166.33503358154297,164.376296282959,170.25743358154295C157.143796282959,177.57933358154298,145.460596282959,183.07073358154298,139.340796282959,190.91563358154298C135.99869628295897,195.40393358154296,134.20449628295898,200.66253358154296,133.17679628295897,206.69153358154296C131.813296282959,214.69023358154297,138.60499628295898,221.51123358154297,146.71889628295898,221.51123358154297C146.71889628295898,221.51123358154297,146.71889628295898,221.51123358154297,146.71889628295898,221.51123358154297C154.39509628295897,221.51123358154297,160.047996282959,215.28723358154298,161.964896282959,207.85413358154295C162.65019628295897,205.19693358154296,163.66879628295897,202.81973358154295,165.210796282959,200.85253358154296C171.608696282959,192.74613358154295,181.06649628295898,189.08523358154298,188.855296282959,182.54773358154296C196.36579628295897,176.53333358154296,204.43259628295897,169.21143358154296,205.54559628295897,157.70563358154297C210.27459628295898,123.97253358154296,180.78839628295898,107.75971358154297,146.01699628295898,109.85169258154296C146.01699628295898,109.85169258154296,146.01699628295898,109.85169258154296,146.01699628295898,109.85169258154296Z" fill="url(#master_svg0_0_463)" fill-opacity="1"/></g><g transform="matrix(0.9824002385139465,0.1867869645357132,0.1782785952091217,0.9839800596237183,-40.015330512575474,-24.351301189997855)"><path d="M168.95558764038086,272.7792088256836C178.92888764038085,272.7792088256836,187.01378764038085,265.29590882568357,187.01378764038085,256.0649088256836C187.01378764038085,246.8338488256836,178.92888764038085,239.3506088256836,168.95558764038086,239.3506088256836C158.98238764038086,239.3506088256836,150.89748764038086,246.8338488256836,150.89748764038086,256.0649088256836C150.89748764038086,265.29590882568357,158.98238764038086,272.7792088256836,168.95558764038086,272.7792088256836C168.95558764038086,272.7792088256836,168.95558764038086,272.7792088256836,168.95558764038086,272.7792088256836Z" fill="url(#master_svg1_0_463)" fill-opacity="1"/></g></g><g><g filter="url(#master_svg2_0_469)"><rect x="223" y="7" width="442" height="301" rx="30" fill="#FFFFFF" fill-opacity="1"/></g><g><path d="M255.29102,105.2012L256.06445,105.2012Q256.63281,105.2012,257.00488,105.0107Q257.37695,104.82031,257.56152,104.48926Q257.74609,104.1582,257.74609,103.74219Q257.74609,103.25,257.58203,102.91602Q257.41797,102.58203,257.08984,102.41211Q256.76172,102.24219,256.25781,102.24219Q255.80078,102.24219,255.45215,102.4209Q255.10352,102.59961,254.90723,102.92773Q254.71094,103.25586,254.71094,103.70117L253.626953,103.70117Q253.626953,103.05078,253.955078,102.51758Q254.2832,101.98438,254.87793,101.66797Q255.47266,101.35156,256.25781,101.35156Q257.03125,101.35156,257.61133,101.62402Q258.19141,101.89648,258.51367,102.43262Q258.83594,102.96875,258.83594,103.76562Q258.83594,104.08789,258.68652,104.4541Q258.53711,104.82031,258.22363,105.1367Q257.91016,105.4531,257.41211,105.6553Q256.91406,105.8574,256.2168,105.8574L255.29102,105.8574L255.29102,105.2012ZM255.29102,106.0918L255.29102,105.4414L256.2168,105.4414Q257.03125,105.4414,257.56445,105.6348Q258.09766,105.8281,258.40527,106.1504Q258.71289,106.4727,258.83887,106.85640000000001Q258.96484,107.2402,258.96484,107.6211Q258.96484,108.2188,258.7627,108.6816Q258.56055,109.1445,258.19434,109.4668Q257.82812,109.7891,257.33594,109.9531Q256.84375,110.1172,256.26367,110.1172Q255.70703,110.1172,255.21777,109.959Q254.72852,109.8008,254.35352,109.499Q253.978516,109.1973,253.767578,108.75489999999999Q253.556641,108.3125,253.556641,107.7441L254.64062,107.7441Q254.64062,108.1895,254.83691,108.5234Q255.0332,108.8574,255.39941,109.042Q255.76562,109.2266,256.26367,109.2266Q256.76172,109.2266,257.12207,109.05369999999999Q257.48242,108.8809,257.67871,108.5293Q257.875,108.1777,257.875,107.6445Q257.875,107.1113,257.65234,106.76859999999999Q257.42969,106.4258,257.02246,106.25880000000001Q256.61523,106.0918,256.06445,106.0918L255.29102,106.0918ZM266.0486,105.0547L266.0486,106.3555Q266.0486,107.4043,265.8611,108.125Q265.6736,108.8457,265.322,109.2852Q264.9705,109.7246,264.4754,109.9209Q263.9802,110.1172,263.3591,110.1172Q262.86695,110.1172,262.45094,109.9941Q262.03492,109.8711,261.70387,109.5986Q261.37281,109.3262,261.13844,108.8867Q260.90406,108.4473,260.78102,107.8203Q260.65797,107.1934,260.65797,106.3555L260.65797,105.0547Q260.65797,104.00586,260.8484,103.29688Q261.03883,102.58789,261.39039,102.15723Q261.74195,101.72656,262.23707,101.53906Q262.73219,101.35156,263.3474,101.35156Q263.8455,101.35156,264.2644,101.47168Q264.6834,101.5918,265.0115,101.85254Q265.3396,102.11328,265.5711,102.54395Q265.8025,102.97461,265.9255,103.5957Q266.0486,104.2168,266.0486,105.0547ZM264.9587,106.5312L264.9587,104.87305Q264.9587,104.29883,264.8914,103.8623Q264.824,103.42578,264.6951,103.11523Q264.5662,102.80469,264.3699,102.61133Q264.1736,102.41797,263.9187,102.32715Q263.6638,102.23633,263.3474,102.23633Q262.9607,102.23633,262.66187,102.37988Q262.36305,102.52344,262.1609,102.83398Q261.95875,103.14453,261.85328,103.64844Q261.74781,104.15234,261.74781,104.87305L261.74781,106.5312Q261.74781,107.1055,261.8152,107.5449Q261.88258,107.9844,262.01734,108.30369999999999Q262.15211,108.623,262.34547,108.8281Q262.53883,109.0332,262.79371,109.12989999999999Q263.0486,109.2266,263.3591,109.2266Q263.7576,109.2266,264.0564,109.0742Q264.3552,108.9219,264.5574,108.5967Q264.7595,108.2715,264.8591,107.75880000000001Q264.9587,107.2461,264.9587,106.5312ZM273.0327,105.0547L273.0327,106.3555Q273.0327,107.4043,272.8452,108.125Q272.6577,108.8457,272.3062,109.2852Q271.9546,109.7246,271.4595,109.9209Q270.9644,110.1172,270.3433,110.1172Q269.8511,110.1172,269.4351,109.9941Q269.0191,109.8711,268.688,109.5986Q268.35699999999997,109.3262,268.1226,108.8867Q267.8882,108.4473,267.7652,107.8203Q267.6421,107.1934,267.6421,106.3555L267.6421,105.0547Q267.6421,104.00586,267.8325,103.29688Q268.023,102.58789,268.3745,102.15723Q268.7261,101.72656,269.2212,101.53906Q269.7163,101.35156,270.3316,101.35156Q270.8296,101.35156,271.2486,101.47168Q271.6675,101.5918,271.9956,101.85254Q272.3237,102.11328,272.5552,102.54395Q272.7866,102.97461,272.9097,103.5957Q273.0327,104.2168,273.0327,105.0547ZM271.9429,106.5312L271.9429,104.87305Q271.9429,104.29883,271.8755,103.8623Q271.8081,103.42578,271.6792,103.11523Q271.5503,102.80469,271.354,102.61133Q271.1577,102.41797,270.9029,102.32715Q270.648,102.23633,270.3316,102.23633Q269.9448,102.23633,269.646,102.37988Q269.3472,102.52344,269.145,102.83398Q268.9429,103.14453,268.8374,103.64844Q268.73199999999997,104.15234,268.73199999999997,104.87305L268.73199999999997,106.5312Q268.73199999999997,107.1055,268.7993,107.5449Q268.8667,107.9844,269.0015,108.30369999999999Q269.1362,108.623,269.3296,108.8281Q269.523,109.0332,269.7779,109.12989999999999Q270.0327,109.2266,270.3433,109.2266Q270.7417,109.2266,271.0405,109.0742Q271.3394,108.9219,271.5415,108.5967Q271.7437,108.2715,271.8433,107.75880000000001Q271.9429,107.2461,271.9429,106.5312Z" fill="#C9C9C9" fill-opacity="1"/></g><g><path d="M259.29883,157.1094L259.29883,158L253.714844,158L253.714844,157.2207L256.50977,154.1094Q257.02539,153.5352,257.30957,153.1338Q257.59375,152.73242,257.70801,152.41309Q257.82227,152.09375,257.82227,151.75977Q257.82227,151.33789,257.64941,150.99512Q257.47656,150.65234,257.14258,150.44727Q256.80859,150.24219,256.33398,150.24219Q255.76562,150.24219,255.3877,150.46191Q255.00977,150.68164,254.82227,151.07422Q254.63477,151.4668,254.63477,151.97656L253.550781,151.97656Q253.550781,151.25586,253.867188,150.6582Q254.18359,150.06055,254.80469,149.70605Q255.42578,149.35156,256.33398,149.35156Q257.14258,149.35156,257.7168,149.63574Q258.29102,149.91992,258.59863,150.43262Q258.90625,150.94531,258.90625,151.63086Q258.90625,152.00586,258.78027,152.38965Q258.6543,152.77344,258.43457,153.1543Q258.21484,153.5352,257.9248,153.9043Q257.63477,154.2734,257.30664,154.6309L255.02148,157.1094L259.29883,157.1094ZM266.0486,153.0547L266.0486,154.3555Q266.0486,155.4043,265.8611,156.125Q265.6736,156.8457,265.322,157.2852Q264.9705,157.7246,264.4754,157.9209Q263.9802,158.1172,263.3591,158.1172Q262.86695,158.1172,262.45094,157.9941Q262.03492,157.8711,261.70387,157.5986Q261.37281,157.3262,261.13844,156.8867Q260.90406,156.4473,260.78102,155.8203Q260.65797,155.1934,260.65797,154.3555L260.65797,153.0547Q260.65797,152.00586,260.8484,151.29688Q261.03883,150.58789,261.39039,150.15723Q261.74195,149.72656,262.23707,149.53906Q262.73219,149.35156,263.3474,149.35156Q263.8455,149.35156,264.2644,149.47168Q264.6834,149.5918,265.0115,149.85254Q265.3396,150.11328,265.5711,150.54395Q265.8025,150.97461,265.9255,151.5957Q266.0486,152.2168,266.0486,153.0547ZM264.9587,154.5312L264.9587,152.87305Q264.9587,152.29883,264.8914,151.8623Q264.824,151.42578,264.6951,151.11523Q264.5662,150.80469,264.3699,150.61133Q264.1736,150.41797,263.9187,150.32715Q263.6638,150.23633,263.3474,150.23633Q262.9607,150.23633,262.66187,150.37988Q262.36305,150.52344,262.1609,150.83398Q261.95875,151.14453,261.85328,151.64844Q261.74781,152.15234,261.74781,152.87305L261.74781,154.5312Q261.74781,155.1055,261.8152,155.5449Q261.88258,155.9844,262.01734,156.3037Q262.15211,156.623,262.34547,156.8281Q262.53883,157.0332,262.79371,157.1299Q263.0486,157.2266,263.3591,157.2266Q263.7576,157.2266,264.0564,157.0742Q264.3552,156.9219,264.5574,156.5967Q264.7595,156.2715,264.8591,155.7588Q264.9587,155.2461,264.9587,154.5312ZM273.0327,153.0547L273.0327,154.3555Q273.0327,155.4043,272.8452,156.125Q272.6577,156.8457,272.3062,157.2852Q271.9546,157.7246,271.4595,157.9209Q270.9644,158.1172,270.3433,158.1172Q269.8511,158.1172,269.4351,157.9941Q269.0191,157.8711,268.688,157.5986Q268.35699999999997,157.3262,268.1226,156.8867Q267.8882,156.4473,267.7652,155.8203Q267.6421,155.1934,267.6421,154.3555L267.6421,153.0547Q267.6421,152.00586,267.8325,151.29688Q268.023,150.58789,268.3745,150.15723Q268.7261,149.72656,269.2212,149.53906Q269.7163,149.35156,270.3316,149.35156Q270.8296,149.35156,271.2486,149.47168Q271.6675,149.5918,271.9956,149.85254Q272.3237,150.11328,272.5552,150.54395Q272.7866,150.97461,272.9097,151.5957Q273.0327,152.2168,273.0327,153.0547ZM271.9429,154.5312L271.9429,152.87305Q271.9429,152.29883,271.8755,151.8623Q271.8081,151.42578,271.6792,151.11523Q271.5503,150.80469,271.354,150.61133Q271.1577,150.41797,270.9029,150.32715Q270.648,150.23633,270.3316,150.23633Q269.9448,150.23633,269.646,150.37988Q269.3472,150.52344,269.145,150.83398Q268.9429,151.14453,268.8374,151.64844Q268.73199999999997,152.15234,268.73199999999997,152.87305L268.73199999999997,154.5312Q268.73199999999997,155.1055,268.7993,155.5449Q268.8667,155.9844,269.0015,156.3037Q269.1362,156.623,269.3296,156.8281Q269.523,157.0332,269.7779,157.1299Q270.0327,157.2266,270.3433,157.2266Q270.7417,157.2266,271.0405,157.0742Q271.3394,156.9219,271.5415,156.5967Q271.7437,156.2715,271.8433,155.7588Q271.9429,155.2461,271.9429,154.5312Z" fill="#C9C9C9" fill-opacity="1"/></g><g><path d="M257.27148,197.42188L257.27148,206L256.1875,206L256.1875,198.77539L254.00195,199.57227L254.00195,198.59375L257.10156,197.42188L257.27148,197.42188ZM266.0486,201.0547L266.0486,202.3555Q266.0486,203.4043,265.8611,204.125Q265.6736,204.8457,265.322,205.2852Q264.9705,205.7246,264.4754,205.9209Q263.9802,206.1172,263.3591,206.1172Q262.86695,206.1172,262.45094,205.9941Q262.03492,205.8711,261.70387,205.5986Q261.37281,205.3262,261.13844,204.8867Q260.90406,204.4473,260.78102,203.8203Q260.65797,203.1934,260.65797,202.3555L260.65797,201.0547Q260.65797,200.00586,260.8484,199.29688Q261.03883,198.58789,261.39039,198.15723Q261.74195,197.72656,262.23707,197.53906Q262.73219,197.35156,263.3474,197.35156Q263.8455,197.35156,264.2644,197.47168Q264.6834,197.5918,265.0115,197.85254Q265.3396,198.11328,265.5711,198.54395Q265.8025,198.97461,265.9255,199.5957Q266.0486,200.2168,266.0486,201.0547ZM264.9587,202.5312L264.9587,200.87305Q264.9587,200.29883,264.8914,199.8623Q264.824,199.42578,264.6951,199.11523Q264.5662,198.80469,264.3699,198.61133Q264.1736,198.41797,263.9187,198.32715Q263.6638,198.23633,263.3474,198.23633Q262.9607,198.23633,262.66187,198.37988Q262.36305,198.52344,262.1609,198.83398Q261.95875,199.14453,261.85328,199.64844Q261.74781,200.15234,261.74781,200.87305L261.74781,202.5312Q261.74781,203.1055,261.8152,203.5449Q261.88258,203.9844,262.01734,204.3037Q262.15211,204.623,262.34547,204.8281Q262.53883,205.0332,262.79371,205.1299Q263.0486,205.2266,263.3591,205.2266Q263.7576,205.2266,264.0564,205.0742Q264.3552,204.9219,264.5574,204.5967Q264.7595,204.2715,264.8591,203.7588Q264.9587,203.2461,264.9587,202.5312ZM273.0327,201.0547L273.0327,202.3555Q273.0327,203.4043,272.8452,204.125Q272.6577,204.8457,272.3062,205.2852Q271.9546,205.7246,271.4595,205.9209Q270.9644,206.1172,270.3433,206.1172Q269.8511,206.1172,269.4351,205.9941Q269.0191,205.8711,268.688,205.5986Q268.35699999999997,205.3262,268.1226,204.8867Q267.8882,204.4473,267.7652,203.8203Q267.6421,203.1934,267.6421,202.3555L267.6421,201.0547Q267.6421,200.00586,267.8325,199.29688Q268.023,198.58789,268.3745,198.15723Q268.7261,197.72656,269.2212,197.53906Q269.7163,197.35156,270.3316,197.35156Q270.8296,197.35156,271.2486,197.47168Q271.6675,197.5918,271.9956,197.85254Q272.3237,198.11328,272.5552,198.54395Q272.7866,198.97461,272.9097,199.5957Q273.0327,200.2168,273.0327,201.0547ZM271.9429,202.5312L271.9429,200.87305Q271.9429,200.29883,271.8755,199.8623Q271.8081,199.42578,271.6792,199.11523Q271.5503,198.80469,271.354,198.61133Q271.1577,198.41797,270.9029,198.32715Q270.648,198.23633,270.3316,198.23633Q269.9448,198.23633,269.646,198.37988Q269.3472,198.52344,269.145,198.83398Q268.9429,199.14453,268.8374,199.64844Q268.73199999999997,200.15234,268.73199999999997,200.87305L268.73199999999997,202.5312Q268.73199999999997,203.1055,268.7993,203.5449Q268.8667,203.9844,269.0015,204.3037Q269.1362,204.623,269.3296,204.8281Q269.523,205.0332,269.7779,205.1299Q270.0327,205.2266,270.3433,205.2266Q270.7417,205.2266,271.0405,205.0742Q271.3394,204.9219,271.5415,204.5967Q271.7437,204.2715,271.8433,203.7588Q271.9429,203.2461,271.9429,202.5312Z" fill="#C9C9C9" fill-opacity="1"/></g><g><path d="M266.06445,279.0547L266.06445,280.3555Q266.06445,281.4043,265.87695,282.125Q265.68945,282.8457,265.33789,283.2852Q264.98633,283.7246,264.49121,283.9209Q263.99609,284.1172,263.375,284.1172Q262.88281,284.1172,262.4668,283.9941Q262.05078,283.8711,261.71973,283.5986Q261.38867,283.3262,261.1543,282.8867Q260.919922,282.4473,260.796875,281.8203Q260.673828,281.1934,260.673828,280.3555L260.673828,279.0547Q260.673828,278.00586,260.864258,277.29688Q261.05469,276.58789,261.40625,276.15723Q261.75781,275.72656,262.25293,275.53906Q262.74805,275.35156,263.36328,275.35156Q263.86133,275.35156,264.28027,275.47168Q264.69922,275.5918,265.02734,275.85254Q265.35547,276.11328,265.58691,276.54395Q265.81836,276.97461,265.94141,277.5957Q266.06445,278.2168,266.06445,279.0547ZM264.97461,280.5312L264.97461,278.87305Q264.97461,278.29883,264.90723,277.8623Q264.83984,277.42578,264.71094,277.11523Q264.58203,276.80469,264.38574,276.61133Q264.18945,276.41797,263.93457,276.32715Q263.67969,276.23633,263.36328,276.23633Q262.97656,276.23633,262.67773,276.37988Q262.37891,276.52344,262.17676,276.83398Q261.97461,277.14453,261.86914,277.64844Q261.76367,278.15234,261.76367,278.87305L261.76367,280.5312Q261.76367,281.1055,261.83105,281.5449Q261.89844,281.9844,262.0332,282.3037Q262.16797,282.623,262.36133,282.8281Q262.55469,283.0332,262.80957,283.1299Q263.06445,283.2266,263.375,283.2266Q263.77344,283.2266,264.07227,283.0742Q264.37109,282.9219,264.57324,282.5967Q264.77539,282.2715,264.875,281.7588Q264.97461,281.2461,264.97461,280.5312ZM273.0486,279.0547L273.0486,280.3555Q273.0486,281.4043,272.8611,282.125Q272.6736,282.8457,272.322,283.2852Q271.9705,283.7246,271.4754,283.9209Q270.9802,284.1172,270.3591,284.1172Q269.86695,284.1172,269.45094,283.9941Q269.03492,283.8711,268.70387,283.5986Q268.37281,283.3262,268.13844,282.8867Q267.90406,282.4473,267.78102,281.8203Q267.65797,281.1934,267.65797,280.3555L267.65797,279.0547Q267.65797,278.00586,267.8484,277.29688Q268.03883,276.58789,268.39039,276.15723Q268.74195,275.72656,269.23707,275.53906Q269.73219,275.35156,270.3474,275.35156Q270.8455,275.35156,271.2644,275.47168Q271.6834,275.5918,272.0115,275.85254Q272.3396,276.11328,272.5711,276.54395Q272.8025,276.97461,272.9255,277.5957Q273.0486,278.2168,273.0486,279.0547ZM271.9587,280.5312L271.9587,278.87305Q271.9587,278.29883,271.8914,277.8623Q271.824,277.42578,271.6951,277.11523Q271.5662,276.80469,271.3699,276.61133Q271.1736,276.41797,270.9187,276.32715Q270.6638,276.23633,270.3474,276.23633Q269.9607,276.23633,269.66187,276.37988Q269.36305,276.52344,269.1609,276.83398Q268.95875,277.14453,268.85328,277.64844Q268.74781,278.15234,268.74781,278.87305L268.74781,280.5312Q268.74781,281.1055,268.8152,281.5449Q268.88258,281.9844,269.01734,282.3037Q269.15211,282.623,269.34547,282.8281Q269.53883,283.0332,269.79371,283.1299Q270.0486,283.2266,270.3591,283.2266Q270.7576,283.2266,271.0564,283.0742Q271.3552,282.9219,271.5574,282.5967Q271.7595,282.2715,271.8591,281.7588Q271.9587,281.2461,271.9587,280.5312Z" fill="#C9C9C9" fill-opacity="1"/></g><g><path d="M313.27148,275.42188L313.27148,284L312.1875,284L312.1875,276.77539L310.00195,277.57227L310.00195,276.59375L313.10156,275.42188L313.27148,275.42188ZM322.0486,279.0547L322.0486,280.3555Q322.0486,281.4043,321.8611,282.125Q321.6736,282.8457,321.322,283.2852Q320.9705,283.7246,320.4754,283.9209Q319.9802,284.1172,319.3591,284.1172Q318.86695,284.1172,318.45094,283.9941Q318.03492,283.8711,317.70387,283.5986Q317.37281,283.3262,317.13844,282.8867Q316.90406,282.4473,316.78102,281.8203Q316.65797,281.1934,316.65797,280.3555L316.65797,279.0547Q316.65797,278.00586,316.8484,277.29688Q317.03883,276.58789,317.39039,276.15723Q317.74195,275.72656,318.23707,275.53906Q318.73219,275.35156,319.3474,275.35156Q319.8455,275.35156,320.2644,275.47168Q320.6834,275.5918,321.0115,275.85254Q321.3396,276.11328,321.5711,276.54395Q321.8025,276.97461,321.9255,277.5957Q322.0486,278.2168,322.0486,279.0547ZM320.9587,280.5312L320.9587,278.87305Q320.9587,278.29883,320.8914,277.8623Q320.824,277.42578,320.6951,277.11523Q320.5662,276.80469,320.3699,276.61133Q320.1736,276.41797,319.9187,276.32715Q319.6638,276.23633,319.3474,276.23633Q318.9607,276.23633,318.66187,276.37988Q318.36305,276.52344,318.1609,276.83398Q317.95875,277.14453,317.85328,277.64844Q317.74781,278.15234,317.74781,278.87305L317.74781,280.5312Q317.74781,281.1055,317.8152,281.5449Q317.88258,281.9844,318.01734,282.3037Q318.15211,282.623,318.34547,282.8281Q318.53883,283.0332,318.79371,283.1299Q319.0486,283.2266,319.3591,283.2266Q319.7576,283.2266,320.0564,283.0742Q320.3552,282.9219,320.5574,282.5967Q320.7595,282.2715,320.8591,281.7588Q320.9587,281.2461,320.9587,280.5312Z" fill="#C9C9C9" fill-opacity="1"/></g><g><path d="M364.29883,283.1094L364.29883,284L358.714844,284L358.714844,283.2207L361.50977,280.1094Q362.02539,279.5352,362.30957,279.1338Q362.59375,278.73242,362.70801,278.41309Q362.82227,278.09375,362.82227,277.75977Q362.82227,277.33789,362.64941,276.99512Q362.47656,276.65234,362.14258,276.44727Q361.80859,276.24219,361.33398,276.24219Q360.76562,276.24219,360.3877,276.46191Q360.00977,276.68164,359.82227,277.07422Q359.63477,277.4668,359.63477,277.97656L358.550781,277.97656Q358.550781,277.25586,358.867188,276.6582Q359.18359,276.06055,359.80469,275.70605Q360.42578,275.35156,361.33398,275.35156Q362.14258,275.35156,362.7168,275.63574Q363.29102,275.91992,363.59863,276.43262Q363.90625,276.94531,363.90625,277.63086Q363.90625,278.00586,363.78027,278.38965Q363.6543,278.77344,363.43457,279.1543Q363.21484,279.5352,362.9248,279.9043Q362.63477,280.2734,362.30664,280.6309L360.02148,283.1094L364.29883,283.1094ZM371.0486,279.0547L371.0486,280.3555Q371.0486,281.4043,370.8611,282.125Q370.6736,282.8457,370.322,283.2852Q369.9705,283.7246,369.4754,283.9209Q368.9802,284.1172,368.3591,284.1172Q367.86695,284.1172,367.45094,283.9941Q367.03492,283.8711,366.70387,283.5986Q366.37281,283.3262,366.13844,282.8867Q365.90406,282.4473,365.78102,281.8203Q365.65797,281.1934,365.65797,280.3555L365.65797,279.0547Q365.65797,278.00586,365.8484,277.29688Q366.03883,276.58789,366.39039,276.15723Q366.74195,275.72656,367.23707,275.53906Q367.73219,275.35156,368.3474,275.35156Q368.8455,275.35156,369.2644,275.47168Q369.6834,275.5918,370.0115,275.85254Q370.3396,276.11328,370.5711,276.54395Q370.8025,276.97461,370.9255,277.5957Q371.0486,278.2168,371.0486,279.0547ZM369.9587,280.5312L369.9587,278.87305Q369.9587,278.29883,369.8914,277.8623Q369.824,277.42578,369.6951,277.11523Q369.5662,276.80469,369.3699,276.61133Q369.1736,276.41797,368.9187,276.32715Q368.6638,276.23633,368.3474,276.23633Q367.9607,276.23633,367.66187,276.37988Q367.36305,276.52344,367.1609,276.83398Q366.95875,277.14453,366.85328,277.64844Q366.74781,278.15234,366.74781,278.87305L366.74781,280.5312Q366.74781,281.1055,366.8152,281.5449Q366.88258,281.9844,367.01734,282.3037Q367.15211,282.623,367.34547,282.8281Q367.53883,283.0332,367.79371,283.1299Q368.0486,283.2266,368.3591,283.2266Q368.7576,283.2266,369.0564,283.0742Q369.3552,282.9219,369.5574,282.5967Q369.7595,282.2715,369.8591,281.7588Q369.9587,281.2461,369.9587,280.5312Z" fill="#C9C9C9" fill-opacity="1"/></g><g><path d="M409.29102,279.2012L410.06445,279.2012Q410.63281,279.2012,411.00488,279.0107Q411.37695,278.82031,411.56152,278.48926Q411.74609,278.1582,411.74609,277.74219Q411.74609,277.25,411.58203,276.91602Q411.41797,276.58203,411.08984,276.41211Q410.76172,276.24219,410.25781,276.24219Q409.80078,276.24219,409.45215,276.4209Q409.10352,276.59961,408.90723,276.92773Q408.71094,277.25586,408.71094,277.70117L407.626953,277.70117Q407.626953,277.05078,407.955078,276.51758Q408.2832,275.98438,408.87793,275.66797Q409.47266,275.35156,410.25781,275.35156Q411.03125,275.35156,411.61133,275.62402Q412.19141,275.89648,412.51367,276.43262Q412.83594,276.96875,412.83594,277.76562Q412.83594,278.08789,412.68652,278.4541Q412.53711,278.82031,412.22363,279.1367Q411.91016,279.4531,411.41211,279.6553Q410.91406,279.8574,410.2168,279.8574L409.29102,279.8574L409.29102,279.2012ZM409.29102,280.0918L409.29102,279.4414L410.2168,279.4414Q411.03125,279.4414,411.56445,279.6348Q412.09766,279.8281,412.40527,280.1504Q412.71289,280.4727,412.83887,280.8564Q412.96484,281.2402,412.96484,281.6211Q412.96484,282.2188,412.7627,282.6816Q412.56055,283.1445,412.19434,283.4668Q411.82812,283.7891,411.33594,283.9531Q410.84375,284.1172,410.26367,284.1172Q409.70703,284.1172,409.21777,283.959Q408.72852,283.8008,408.35352,283.499Q407.978516,283.1973,407.767578,282.7549Q407.556641,282.3125,407.556641,281.7441L408.64062,281.7441Q408.64062,282.1895,408.83691,282.5234Q409.0332,282.8574,409.39941,283.042Q409.76562,283.2266,410.26367,283.2266Q410.76172,283.2266,411.12207,283.0537Q411.48242,282.8809,411.67871,282.5293Q411.875,282.1777,411.875,281.6445Q411.875,281.1113,411.65234,280.7686Q411.42969,280.4258,411.02246,280.2588Q410.61523,280.0918,410.06445,280.0918L409.29102,280.0918ZM420.0486,279.0547L420.0486,280.3555Q420.0486,281.4043,419.8611,282.125Q419.6736,282.8457,419.322,283.2852Q418.9705,283.7246,418.4754,283.9209Q417.9802,284.1172,417.3591,284.1172Q416.86695,284.1172,416.45094,283.9941Q416.03492,283.8711,415.70387,283.5986Q415.37281,283.3262,415.13844,282.8867Q414.90406,282.4473,414.78102,281.8203Q414.65797,281.1934,414.65797,280.3555L414.65797,279.0547Q414.65797,278.00586,414.8484,277.29688Q415.03883,276.58789,415.39039,276.15723Q415.74195,275.72656,416.23707,275.53906Q416.73219,275.35156,417.3474,275.35156Q417.8455,275.35156,418.2644,275.47168Q418.6834,275.5918,419.0115,275.85254Q419.3396,276.11328,419.5711,276.54395Q419.8025,276.97461,419.9255,277.5957Q420.0486,278.2168,420.0486,279.0547ZM418.9587,280.5312L418.9587,278.87305Q418.9587,278.29883,418.8914,277.8623Q418.824,277.42578,418.6951,277.11523Q418.5662,276.80469,418.3699,276.61133Q418.1736,276.41797,417.9187,276.32715Q417.6638,276.23633,417.3474,276.23633Q416.9607,276.23633,416.66187,276.37988Q416.36305,276.52344,416.1609,276.83398Q415.95875,277.14453,415.85328,277.64844Q415.74781,278.15234,415.74781,278.87305L415.74781,280.5312Q415.74781,281.1055,415.8152,281.5449Q415.88258,281.9844,416.01734,282.3037Q416.15211,282.623,416.34547,282.8281Q416.53883,283.0332,416.79371,283.1299Q417.0486,283.2266,417.3591,283.2266Q417.7576,283.2266,418.0564,283.0742Q418.3552,282.9219,418.5574,282.5967Q418.7595,282.2715,418.8591,281.7588Q418.9587,281.2461,418.9587,280.5312Z" fill="#C9C9C9" fill-opacity="1"/></g><g><path d="M462.47461,281.1289L462.47461,282.0195L456.310547,282.0195L456.310547,281.3809L460.13086,275.46875L461.01562,275.46875L460.06641,277.17969L457.54102,281.1289L462.47461,281.1289ZM461.28516,275.46875L461.28516,284L460.20117,284L460.20117,275.46875L461.28516,275.46875ZM469.0486,279.0547L469.0486,280.3555Q469.0486,281.4043,468.8611,282.125Q468.6736,282.8457,468.322,283.2852Q467.9705,283.7246,467.4754,283.9209Q466.9802,284.1172,466.3591,284.1172Q465.86695,284.1172,465.45094,283.9941Q465.03492,283.8711,464.70387,283.5986Q464.37281,283.3262,464.13844,282.8867Q463.90406,282.4473,463.78102,281.8203Q463.65797,281.1934,463.65797,280.3555L463.65797,279.0547Q463.65797,278.00586,463.8484,277.29688Q464.03883,276.58789,464.39039,276.15723Q464.74195,275.72656,465.23707,275.53906Q465.73219,275.35156,466.3474,275.35156Q466.8455,275.35156,467.2644,275.47168Q467.6834,275.5918,468.0115,275.85254Q468.3396,276.11328,468.5711,276.54395Q468.8025,276.97461,468.9255,277.5957Q469.0486,278.2168,469.0486,279.0547ZM467.9587,280.5312L467.9587,278.87305Q467.9587,278.29883,467.8914,277.8623Q467.824,277.42578,467.6951,277.11523Q467.5662,276.80469,467.3699,276.61133Q467.1736,276.41797,466.9187,276.32715Q466.6638,276.23633,466.3474,276.23633Q465.9607,276.23633,465.66187,276.37988Q465.36305,276.52344,465.1609,276.83398Q464.95875,277.14453,464.85328,277.64844Q464.74781,278.15234,464.74781,278.87305L464.74781,280.5312Q464.74781,281.1055,464.8152,281.5449Q464.88258,281.9844,465.01734,282.3037Q465.15211,282.623,465.34547,282.8281Q465.53883,283.0332,465.79371,283.1299Q466.0486,283.2266,466.3591,283.2266Q466.7576,283.2266,467.0564,283.0742Q467.3552,282.9219,467.5574,282.5967Q467.7595,282.2715,467.8591,281.7588Q467.9587,281.2461,467.9587,280.5312Z" fill="#C9C9C9" fill-opacity="1"/></g><g><path d="M507.08008,279.9395L506.21289,279.7168L506.64062,275.46875L511.01758,275.46875L511.01758,276.4707L507.56055,276.4707L507.30273,278.79102Q507.53711,278.65625,507.89746,278.53906Q508.25781,278.42188,508.72656,278.42188Q509.31836,278.42188,509.78711,278.62402Q510.25586,278.82617,510.58691,279.2012Q510.91797,279.5762,511.09375,280.1035Q511.26953,280.6309,511.26953,281.2812Q511.26953,281.8965,511.10254,282.4121Q510.93555,282.9277,510.60156,283.3115Q510.26758,283.6953,509.76074,283.9062Q509.25391,284.1172,508.56836,284.1172Q508.05273,284.1172,507.59277,283.9736Q507.13281,283.8301,506.77246,283.5342Q506.41211,283.2383,506.18652,282.7959Q505.960938,282.3535,505.902344,281.7559L506.93359,281.7559Q507.00391,282.2363,507.21484,282.5645Q507.42578,282.8926,507.76855,283.0596Q508.11133,283.2266,508.56836,283.2266Q508.95508,283.2266,509.25391,283.0918Q509.55273,282.957,509.75781,282.7051Q509.96289,282.4531,510.07129,282.0957Q510.17969,281.7383,510.17969,281.293Q510.17969,280.8887,510.06836,280.543Q509.95703,280.1973,509.7373,279.9395Q509.51758,279.6816,509.20117,279.5381Q508.88477,279.3945,508.47461,279.3945Q507.92969,279.3945,507.65137,279.541Q507.37305,279.6875,507.08008,279.9395ZM518.0486,279.0547L518.0486,280.3555Q518.0486,281.4043,517.8611,282.125Q517.6736,282.8457,517.322,283.2852Q516.9705,283.7246,516.4754,283.9209Q515.9802,284.1172,515.3591,284.1172Q514.86695,284.1172,514.45094,283.9941Q514.03492,283.8711,513.70387,283.5986Q513.37281,283.3262,513.13844,282.8867Q512.90406,282.4473,512.78102,281.8203Q512.65797,281.1934,512.65797,280.3555L512.65797,279.0547Q512.65797,278.00586,512.8484,277.29688Q513.03883,276.58789,513.39039,276.15723Q513.74195,275.72656,514.23707,275.53906Q514.73219,275.35156,515.3474,275.35156Q515.8455,275.35156,516.2644,275.47168Q516.6834,275.5918,517.0115,275.85254Q517.3396,276.11328,517.5711,276.54395Q517.8025,276.97461,517.9255,277.5957Q518.0486,278.2168,518.0486,279.0547ZM516.9587,280.5312L516.9587,278.87305Q516.9587,278.29883,516.8914,277.8623Q516.824,277.42578,516.6951,277.11523Q516.5662,276.80469,516.3699,276.61133Q516.1736,276.41797,515.9187,276.32715Q515.6638,276.23633,515.3474,276.23633Q514.9607,276.23633,514.66187,276.37988Q514.36305,276.52344,514.1609,276.83398Q513.95875,277.14453,513.85328,277.64844Q513.74781,278.15234,513.74781,278.87305L513.74781,280.5312Q513.74781,281.1055,513.8152,281.5449Q513.88258,281.9844,514.01734,282.3037Q514.15211,282.623,514.34547,282.8281Q514.53883,283.0332,514.79371,283.1299Q515.0486,283.2266,515.3591,283.2266Q515.7576,283.2266,516.0564,283.0742Q516.3552,282.9219,516.5574,282.5967Q516.7595,282.2715,516.8591,281.7588Q516.9587,281.2461,516.9587,280.5312Z" fill="#C9C9C9" fill-opacity="1"/></g><g><path d="M558.86914,275.45703L558.96289,275.45703L558.96289,276.37695L558.86914,276.37695Q558.00781,276.37695,557.42773,276.65527Q556.84766,276.93359,556.50781,277.39941Q556.16797,277.86523,556.01855,278.44531Q555.86914,279.0254,555.86914,279.623L555.86914,280.877Q555.86914,281.4453,556.00391,281.8818Q556.13867,282.3184,556.37305,282.6172Q556.60742,282.916,556.90332,283.0684Q557.19922,283.2207,557.52148,283.2207Q557.89648,283.2207,558.18945,283.0771Q558.48242,282.9336,558.68457,282.6729Q558.88672,282.4121,558.99219,282.0547Q559.09766,281.6973,559.09766,281.2695Q559.09766,280.8887,559.00391,280.5342Q558.91016,280.1797,558.7168,279.9014Q558.52344,279.623,558.2334,279.4619Q557.94336,279.3008,557.54492,279.3008Q557.09375,279.3008,556.7041,279.5205Q556.31445,279.7402,556.06543,280.0947Q555.81641,280.4492,555.78125,280.8652L555.20703,280.8594Q555.28906,280.2031,555.51465,279.7373Q555.74023,279.2715,556.07715,278.97559Q556.41406,278.67969,556.83301,278.54199Q557.25195,278.4043,557.7207,278.4043Q558.35938,278.4043,558.82227,278.64453Q559.28516,278.88477,559.58398,279.2861Q559.88281,279.6875,560.02637,280.1885Q560.16992,280.6895,560.16992,281.2168Q560.16992,281.8203,560,282.3477Q559.83008,282.875,559.49316,283.2734Q559.15625,283.6719,558.66406,283.8945Q558.17188,284.1172,557.52148,284.1172Q556.83008,284.1172,556.31445,283.833Q555.79883,283.5488,555.45898,283.0742Q555.11914,282.5996,554.949219,282.0195Q554.779297,281.4395,554.779297,280.8418L554.779297,280.332Q554.779297,279.4297,554.960938,278.5625Q555.14258,277.69531,555.59082,276.99219Q556.03906,276.28906,556.83594,275.87305Q557.63281,275.45703,558.86914,275.45703ZM567.0486,279.0547L567.0486,280.3555Q567.0486,281.4043,566.8611,282.125Q566.6736,282.8457,566.322,283.2852Q565.9705,283.7246,565.4754,283.9209Q564.9802,284.1172,564.3591,284.1172Q563.86695,284.1172,563.45094,283.9941Q563.03492,283.8711,562.70387,283.5986Q562.37281,283.3262,562.13844,282.8867Q561.90406,282.4473,561.78102,281.8203Q561.65797,281.1934,561.65797,280.3555L561.65797,279.0547Q561.65797,278.00586,561.8484,277.29688Q562.03883,276.58789,562.39039,276.15723Q562.74195,275.72656,563.23707,275.53906Q563.73219,275.35156,564.3474,275.35156Q564.8455,275.35156,565.2644,275.47168Q565.6834,275.5918,566.0115,275.85254Q566.3396,276.11328,566.5711,276.54395Q566.8025,276.97461,566.9255,277.5957Q567.0486,278.2168,567.0486,279.0547ZM565.9587,280.5312L565.9587,278.87305Q565.9587,278.29883,565.8914,277.8623Q565.824,277.42578,565.6951,277.11523Q565.5662,276.80469,565.3699,276.61133Q565.1736,276.41797,564.9187,276.32715Q564.6638,276.23633,564.3474,276.23633Q563.9607,276.23633,563.66187,276.37988Q563.36305,276.52344,563.1609,276.83398Q562.95875,277.14453,562.85328,277.64844Q562.74781,278.15234,562.74781,278.87305L562.74781,280.5312Q562.74781,281.1055,562.8152,281.5449Q562.88258,281.9844,563.01734,282.3037Q563.15211,282.623,563.34547,282.8281Q563.53883,283.0332,563.79371,283.1299Q564.0486,283.2266,564.3591,283.2266Q564.7576,283.2266,565.0564,283.0742Q565.3552,282.9219,565.5574,282.5967Q565.7595,282.2715,565.8591,281.7588Q565.9587,281.2461,565.9587,280.5312Z" fill="#C9C9C9" fill-opacity="1"/></g><g><path d="M609.22266,275.46875L609.22266,276.07812L605.68945,284L604.54688,284L608.07422,276.35938L603.457031,276.35938L603.457031,275.46875L609.22266,275.46875ZM616.0486,279.0547L616.0486,280.3555Q616.0486,281.4043,615.8611,282.125Q615.6736,282.8457,615.322,283.2852Q614.9705,283.7246,614.4754,283.9209Q613.9802,284.1172,613.3591,284.1172Q612.86695,284.1172,612.45094,283.9941Q612.03492,283.8711,611.70387,283.5986Q611.37281,283.3262,611.13844,282.8867Q610.90406,282.4473,610.78102,281.8203Q610.65797,281.1934,610.65797,280.3555L610.65797,279.0547Q610.65797,278.00586,610.8484,277.29688Q611.03883,276.58789,611.39039,276.15723Q611.74195,275.72656,612.23707,275.53906Q612.73219,275.35156,613.3474,275.35156Q613.8455,275.35156,614.2644,275.47168Q614.6834,275.5918,615.0115,275.85254Q615.3396,276.11328,615.5711,276.54395Q615.8025,276.97461,615.9255,277.5957Q616.0486,278.2168,616.0486,279.0547ZM614.9587,280.5312L614.9587,278.87305Q614.9587,278.29883,614.8914,277.8623Q614.824,277.42578,614.6951,277.11523Q614.5662,276.80469,614.3699,276.61133Q614.1736,276.41797,613.9187,276.32715Q613.6638,276.23633,613.3474,276.23633Q612.9607,276.23633,612.66187,276.37988Q612.36305,276.52344,612.1609,276.83398Q611.95875,277.14453,611.85328,277.64844Q611.74781,278.15234,611.74781,278.87305L611.74781,280.5312Q611.74781,281.1055,611.8152,281.5449Q611.88258,281.9844,612.01734,282.3037Q612.15211,282.623,612.34547,282.8281Q612.53883,283.0332,612.79371,283.1299Q613.0486,283.2266,613.3591,283.2266Q613.7576,283.2266,614.0564,283.0742Q614.3552,282.9219,614.5574,282.5967Q614.7595,282.2715,614.8591,281.7588Q614.9587,281.2461,614.9587,280.5312Z" fill="#C9C9C9" fill-opacity="1"/></g><g><path d="M259.06445,249.0547L259.06445,250.3555Q259.06445,251.4043,258.87695,252.125Q258.68945,252.8457,258.33789,253.2852Q257.98633,253.7246,257.49121,253.9209Q256.99609,254.1172,256.375,254.1172Q255.88281,254.1172,255.4668,253.9941Q255.05078,253.8711,254.71973,253.5986Q254.38867,253.3262,254.1543,252.8867Q253.919922,252.4473,253.796875,251.8203Q253.673828,251.1934,253.673828,250.3555L253.673828,249.0547Q253.673828,248.00586,253.864258,247.29688Q254.05469,246.58789,254.40625,246.15723Q254.75781,245.72656,255.25293,245.53906Q255.74805,245.35156,256.36328,245.35156Q256.86133,245.35156,257.28027,245.47168Q257.69922,245.5918,258.02734,245.85254Q258.35547,246.11328,258.58691,246.54395Q258.81836,246.97461,258.94141,247.5957Q259.06445,248.2168,259.06445,249.0547ZM257.97461,250.5312L257.97461,248.87305Q257.97461,248.29883,257.90723,247.8623Q257.83984,247.42578,257.71094,247.11523Q257.58203,246.80469,257.38574,246.61133Q257.18945,246.41797,256.93457,246.32715Q256.67969,246.23633,256.36328,246.23633Q255.97656,246.23633,255.67773,246.37988Q255.37891,246.52344,255.17676,246.83398Q254.97461,247.14453,254.86914,247.64844Q254.76367,248.15234,254.76367,248.87305L254.76367,250.5312Q254.76367,251.1055,254.83105,251.5449Q254.89844,251.9844,255.0332,252.3037Q255.16797,252.623,255.36133,252.8281Q255.55469,253.0332,255.80957,253.1299Q256.06445,253.2266,256.375,253.2266Q256.77344,253.2266,257.07227,253.0742Q257.37109,252.9219,257.57324,252.5967Q257.77539,252.2715,257.875,251.7588Q257.97461,251.2461,257.97461,250.5312ZM266.0486,249.0547L266.0486,250.3555Q266.0486,251.4043,265.8611,252.125Q265.6736,252.8457,265.322,253.2852Q264.9705,253.7246,264.4754,253.9209Q263.9802,254.1172,263.3591,254.1172Q262.86695,254.1172,262.45094,253.9941Q262.03492,253.8711,261.70387,253.5986Q261.37281,253.3262,261.13844,252.8867Q260.90406,252.4473,260.78102,251.8203Q260.65797,251.1934,260.65797,250.3555L260.65797,249.0547Q260.65797,248.00586,260.8484,247.29688Q261.03883,246.58789,261.39039,246.15723Q261.74195,245.72656,262.23707,245.53906Q262.73219,245.35156,263.3474,245.35156Q263.8455,245.35156,264.2644,245.47168Q264.6834,245.5918,265.0115,245.85254Q265.3396,246.11328,265.5711,246.54395Q265.8025,246.97461,265.9255,247.5957Q266.0486,248.2168,266.0486,249.0547ZM264.9587,250.5312L264.9587,248.87305Q264.9587,248.29883,264.8914,247.8623Q264.824,247.42578,264.6951,247.11523Q264.5662,246.80469,264.3699,246.61133Q264.1736,246.41797,263.9187,246.32715Q263.6638,246.23633,263.3474,246.23633Q262.9607,246.23633,262.66187,246.37988Q262.36305,246.52344,262.1609,246.83398Q261.95875,247.14453,261.85328,247.64844Q261.74781,248.15234,261.74781,248.87305L261.74781,250.5312Q261.74781,251.1055,261.8152,251.5449Q261.88258,251.9844,262.01734,252.3037Q262.15211,252.623,262.34547,252.8281Q262.53883,253.0332,262.79371,253.1299Q263.0486,253.2266,263.3591,253.2266Q263.7576,253.2266,264.0564,253.0742Q264.3552,252.9219,264.5574,252.5967Q264.7595,252.2715,264.8591,251.7588Q264.9587,251.2461,264.9587,250.5312Z" fill="#C9C9C9" fill-opacity="1"/></g><g><ellipse cx="253" cy="44" rx="10" ry="10" fill="#FACA10" fill-opacity="1"/></g><g><line x1="247" y1="124.5" x2="641" y2="124.5" fill-opacity="0" stroke-opacity="1" stroke="#D4D4D4" fill="none" stroke-width="1"/></g><g><line x1="247" y1="172.5" x2="641" y2="172.5" fill-opacity="0" stroke-opacity="1" stroke="#D4D4D4" fill="none" stroke-width="1"/></g><g><line x1="247" y1="220.5" x2="641" y2="220.5" fill-opacity="0" stroke-opacity="1" stroke="#D4D4D4" fill="none" stroke-width="1"/></g><g><line x1="247" y1="268.5" x2="641" y2="268.5" fill-opacity="0" stroke-opacity="1" stroke="#D4D4D4" fill="none" stroke-width="1"/></g><g><rect x="308" y="135" width="16" height="127" rx="8" fill="url(#master_svg3_0_463)" fill-opacity="1"/></g><g><rect x="357" y="112" width="16" height="150" rx="8" fill="url(#master_svg4_0_463)" fill-opacity="1"/></g><g><rect x="406" y="125" width="16" height="137" rx="8" fill="url(#master_svg5_0_463)" fill-opacity="1"/></g><g><rect x="455" y="88" width="16" height="174" rx="8" fill="url(#master_svg6_0_463)" fill-opacity="1"/></g><g><rect x="504" y="116" width="16" height="146" rx="8" fill="url(#master_svg7_0_463)" fill-opacity="1"/></g><g><rect x="553" y="104" width="16" height="158" rx="8" fill="url(#master_svg8_0_463)" fill-opacity="1"/></g><g><rect x="602" y="116" width="16" height="146" rx="8" fill="url(#master_svg9_0_463)" fill-opacity="1"/></g></g><g><g filter="url(#master_svga_0_502)"><rect x="85" y="173" width="201" height="247" rx="30" fill="#FFFFFF" fill-opacity="1"/></g><g><path d="M172,237C172,243.9232,169.9673,250.1868,165.902,255.79059999999998C161.8366,261.3945,156.51330000000002,265.2709,149.93200000000002,267.4197C143.35070000000002,269.5685,136.7656,269.5802,130.1766,267.4549C123.5877,265.3296,118.2506,261.4723,114.16525,255.8829C110.07992,250.2936,108.0249087,244.03730000000002,108.000205994,237.11419999999998C107.9755039,230.191,109.98582,223.9203,114.03116,218.3019C118.0765,212.68353,123.386,208.78822,129.9595,206.61597C136.5331,204.443713,143.1182,204.40847,149.7146,206.51024L140,237L172,237Z" fill="#FACA10" fill-opacity="1"/></g><g transform="matrix(0.035738471895456314,-0.9993611574172974,0.9993611574172974,0.035738471895456314,-158.71922993703652,365.3199459637394)"><path d="M172.24197978515625,307.2210251953125C170.12997978515625,313.4248251953125,166.45867978515625,318.5008251953125,161.22807978515624,322.4490251953125C155.99747978515626,326.3972251953125,150.10967978515626,328.5367251953125,143.56457978515624,328.8675251953125L141.94927978515625,296.9083251953125L172.24197978515625,307.2210251953125Z" fill="#FACA10" fill-opacity="1"/></g><g><rect x="199" y="215" width="68" height="10" rx="0" fill="#EDECEC" fill-opacity="1"/></g><g><rect x="199" y="237" width="68" height="10" rx="0" fill="#EDECEC" fill-opacity="1"/></g><g><rect x="199" y="259" width="68" height="10" rx="0" fill="#EDECEC" fill-opacity="1"/></g><g><rect x="112" y="303" width="155" height="10" rx="0" fill="#EDECEC" fill-opacity="1"/></g><g><rect x="112" y="329" width="155" height="10" rx="0" fill="#EDECEC" fill-opacity="1"/></g><g><rect x="112" y="355" width="155" height="37" rx="0" fill="#EDECEC" fill-opacity="1"/></g></g></g></svg>