<svg xmlns="http://www.w3.org/2000/svg" xmlns:xlink="http://www.w3.org/1999/xlink" fill="none" version="1.1" width="327" height="373" viewBox="0 0 327 373"><defs><filter id="master_svg0_0_502" filterUnits="objectBoundingBox" color-interpolation-filters="sRGB" x="-106" y="-61" width="369" height="415"><feFlood flood-opacity="0" result="BackgroundImageFix"/><feColorMatrix in="SourceAlpha" type="matrix" values="0 0 0 0 0 0 0 0 0 0 0 0 0 0 0 0 0 0 127 0"/><feOffset dy="23" dx="-22"/><feGaussianBlur stdDeviation="21"/><feColorMatrix type="matrix" values="0 0 0 0 0 0 0 0 0 0 0 0 0 0 0 0 0 0 0.05000000074505806 0"/><feBlend mode="normal" in2="BackgroundImageFix" result="effect1_dropShadow"/><feBlend mode="normal" in="SourceGraphic" in2="effect1_dropShadow" result="shape"/></filter></defs><g><g filter="url(#master_svg0_0_502)"><rect x="85" y="40" width="201" height="247" rx="30" fill="#FFFFFF" fill-opacity="1"/></g><g><path d="M172,104C172,110.92320000000001,169.9673,117.1868,165.902,122.7906C161.8366,128.3945,156.51330000000002,132.27089999999998,149.93200000000002,134.4197C143.35070000000002,136.5685,136.7656,136.5802,130.1766,134.4549C123.5877,132.3296,118.2506,128.4723,114.16525,122.8829C110.07992,117.2936,108.0249087,111.0373,108.000205994,104.1142C107.9755039,97.191,109.98582,90.9203,114.03116,85.3019C118.0765,79.68353,123.386,75.78822,129.9595,73.61597C136.5331,71.443713,143.1182,71.40847,149.7146,73.51024L140,104L172,104Z" fill="#FACA10" fill-opacity="1"/></g><g transform="matrix(0.035738471895456314,-0.9993611574172974,0.9993611574172974,0.035738471895456314,-25.804196000535967,237.07316272583512)"><path d="M172.24197978515625,174.2210251953125C170.12997978515625,180.4248251953125,166.45867978515625,185.5008251953125,161.22807978515624,189.44902519531252C155.99747978515626,193.3972251953125,150.10967978515626,195.5367251953125,143.56457978515624,195.8675251953125L141.94927978515625,163.9083251953125L172.24197978515625,174.2210251953125Z" fill="#FACA10" fill-opacity="1"/></g><g><rect x="199" y="82" width="68" height="10" rx="0" fill="#EDECEC" fill-opacity="1"/></g><g><rect x="199" y="104" width="68" height="10" rx="0" fill="#EDECEC" fill-opacity="1"/></g><g><rect x="199" y="126" width="68" height="10" rx="0" fill="#EDECEC" fill-opacity="1"/></g><g><rect x="112" y="170" width="155" height="10" rx="0" fill="#EDECEC" fill-opacity="1"/></g><g><rect x="112" y="196" width="155" height="10" rx="0" fill="#EDECEC" fill-opacity="1"/></g><g><rect x="112" y="222" width="155" height="37" rx="0" fill="#EDECEC" fill-opacity="1"/></g></g></svg>