<svg xmlns="http://www.w3.org/2000/svg" xmlns:xlink="http://www.w3.org/1999/xlink" fill="none" version="1.1" width="14" height="12.807373046875" viewBox="0 0 14 12.807373046875"><g><g><path d="M7.000000086668926,12.807399962526864C5.615530086668926,12.807399962526864,4.262150086668926,12.431799962526865,3.111010086668926,11.728199962526864C1.9598700866689263,11.024499962526864,1.0626600866689262,10.024399962526864,0.5328460866689263,8.854299962526865C0.003032976668926258,7.684169962526864,-0.13558991333107373,6.396599962526865,0.13450608666892624,5.154409962526865C0.40460308666892625,3.9122099625268643,1.0712900866689263,2.7711799625268645,2.0502600866689265,1.8755999625268642C3.0292200866689263,0.9800299625268643,4.276500086668927,0.3701359625268643,5.634370086668926,0.1230479625268643C6.992240086668926,-0.1240400374731357,8.399700086668926,0.0027746225268642944,9.678790086668926,0.4874559625268643C10.957900086668927,0.9721369625268643,12.051100086668926,1.7929199625268644,12.820300086668926,2.8459999625268644C13.589500086668926,3.8990799625268644,14.000000086668926,5.1371699625268645,14.000000086668926,6.4037099625268645C14.000000086668926,8.102069962526864,13.262500086668926,9.730879962526865,11.949700086668926,10.931799962526865C10.637000086668927,12.132699962526864,8.856520086668926,12.807399962526864,7.000000086668926,12.807399962526864C7.000000086668926,12.807399962526864,7.000000086668926,12.807399962526864,7.000000086668926,12.807399962526864ZM7.000000086668926,0.9148179625268643C5.813310086668927,0.9148179625268643,4.653280086668926,1.2367399625268642,3.6665800866689264,1.8398599625268643C2.679890086668926,2.4429899625268643,1.9108500866689262,3.3002399625268644,1.4567300866689263,4.303199962526865C1.0026000866689262,5.3061599625268645,0.8837800866689263,6.409789962526864,1.1152900866689262,7.474529962526864C1.3468000866689263,8.539269962526864,1.9182500866689263,9.517299962526865,2.757360086668926,10.284899962526865C3.5964800866689264,11.052599962526864,4.665570086668926,11.575299962526865,5.829460086668926,11.787099962526865C6.993350086668927,11.998899962526865,8.199750086668926,11.890199962526864,9.296100086668925,11.474799962526864C10.392500086668926,11.059299962526865,11.329500086668926,10.355799962526865,11.988800086668926,9.453169962526864C12.648100086668926,8.550529962526864,13.000000086668926,7.489309962526864,13.000000086668926,6.4037099625268645C13.000000086668926,4.947959962526864,12.367900086668927,3.551839962526864,11.242600086668926,2.522479962526864C10.117400086668926,1.4931099625268642,8.591300086668927,0.9148179625268643,7.000000086668926,0.9148179625268643C7.000000086668926,0.9148179625268643,7.000000086668926,0.9148179625268643,7.000000086668926,0.9148179625268643C7.000000086668926,0.9148179625268643,7.000000086668926,0.9148179625268643,7.000000086668926,0.9148179625268643Z" fill="#B0B0B0" fill-opacity="1"/></g><g><path d="M9.295,9.148114470825195C9.295,9.148114470825195,6.5,6.591204470825195,6.5,6.591204470825195C6.5,6.591204470825195,6.5,2.2870044708251953,6.5,2.2870044708251953C6.5,2.2870044708251953,7.5,2.2870044708251953,7.5,2.2870044708251953C7.5,2.2870044708251953,7.5,6.211564470825195,7.5,6.211564470825195C7.5,6.211564470825195,10,8.503174470825195,10,8.503174470825195C10,8.503174470825195,9.295,9.148114470825195,9.295,9.148114470825195C9.295,9.148114470825195,9.295,9.148114470825195,9.295,9.148114470825195Z" fill="#B0B0B0" fill-opacity="1"/></g></g></svg>