<svg xmlns="http://www.w3.org/2000/svg" xmlns:xlink="http://www.w3.org/1999/xlink" fill="none" version="1.1" width="10" height="20" viewBox="0 0 10 20"><g><g><g><path d="M6.25,6.875C6.25,6.875,6.25,4.375,6.25,4.375C6.25,3.685,6.81,3.125,7.5,3.125C7.5,3.125,8.75,3.125,8.75,3.125C8.75,3.125,8.75,0,8.75,0C8.75,0,6.25,0,6.25,0C4.17875,0,2.5,1.67875,2.5,3.75C2.5,3.75,2.5,6.875,2.5,6.875C2.5,6.875,0,6.875,0,6.875C0,6.875,0,10,0,10C0,10,2.5,10,2.5,10C2.5,10,2.5,20,2.5,20C2.5,20,6.25,20,6.25,20C6.25,20,6.25,10,6.25,10C6.25,10,8.75,10,8.75,10C8.75,10,10,6.875,10,6.875C10,6.875,6.25,6.875,6.25,6.875C6.25,6.875,6.25,6.875,6.25,6.875Z" fill="#1E1E1E" fill-opacity="1"/></g></g></g></svg>