<svg xmlns="http://www.w3.org/2000/svg" xmlns:xlink="http://www.w3.org/1999/xlink" fill="none" version="1.1" width="20" height="20.000244140625" viewBox="0 0 20 20.000244140625"><g><g><path d="M19.994978218841553,20.00014911727905C19.994978218841553,20.00014911727905,19.994978218841553,19.999349117279053,19.994978218841553,19.999349117279053C19.994978218841553,19.999349117279053,19.999978218841555,19.999349117279053,19.999978218841555,19.999349117279053C19.999978218841555,19.999349117279053,19.999978218841555,12.664349117279052,19.999978218841555,12.664349117279052C19.999978218841555,9.076019117279053,19.227478218841554,6.311849117279053,15.032508218841553,6.311849117279053C13.015848218841553,6.311849117279053,11.662508218841552,7.418519117279053,11.110008218841553,8.467679117279053C11.110008218841553,8.467679117279053,11.051678218841552,8.467679117279053,11.051678218841552,8.467679117279053C11.051678218841552,8.467679117279053,11.051678218841552,6.646849117279053,11.051678218841552,6.646849117279053C11.051678218841552,6.646849117279053,7.074178218841553,6.646849117279053,7.074178218841553,6.646849117279053C7.074178218841553,6.646849117279053,7.074178218841553,19.999349117279053,7.074178218841553,19.999349117279053C7.074178218841553,19.999349117279053,11.215848218841554,19.999349117279053,11.215848218841554,19.999349117279053C11.215848218841554,19.999349117279053,11.215848218841554,13.387689117279052,11.215848218841554,13.387689117279052C11.215848218841554,11.646849117279054,11.545848218841552,9.963519117279052,13.701678218841554,9.963519117279052C15.825848218841553,9.963519117279052,15.857508218841552,11.950179117279053,15.857508218841552,13.499349117279053C15.857508218841552,13.499349117279053,15.857508218841552,20.00014911727905,15.857508218841552,20.00014911727905C15.857508218841552,20.00014911727905,19.994978218841553,20.00014911727905,19.994978218841553,20.00014911727905C19.994978218841553,20.00014911727905,19.994978218841553,20.00014911727905,19.994978218841553,20.00014911727905Z" fill="#1E1E1E" fill-opacity="1"/></g><g><path d="M0.3299967348575592,6.647542476654053C0.3299967348575592,6.647542476654053,4.4766667348575595,6.647542476654053,4.4766667348575595,6.647542476654053C4.4766667348575595,6.647542476654053,4.4766667348575595,20.000042476654052,4.4766667348575595,20.000042476654052C4.4766667348575595,20.000042476654052,0.3299967348575592,20.000042476654052,0.3299967348575592,20.000042476654052C0.3299967348575592,20.000042476654052,0.3299967348575592,6.647542476654053,0.3299967348575592,6.647542476654053C0.3299967348575592,6.647542476654053,0.3299967348575592,6.647542476654053,0.3299967348575592,6.647542476654053Z" fill="#1E1E1E" fill-opacity="1"/></g><g><path d="M2.40167,0C1.07583,0,0,1.07583,0,2.40167C0,3.7275,1.07583,4.82583,2.40167,4.82583C3.7275,4.82583,4.80333,3.7275,4.80333,2.40167C4.8025,1.07583,3.72667,3.70074e-16,2.40167,3.70074e-16C2.40167,3.70074e-16,2.40167,0,2.40167,0C2.40167,0,2.40167,0,2.40167,0Z" fill="#1E1E1E" fill-opacity="1"/></g></g></svg>