<svg xmlns="http://www.w3.org/2000/svg" xmlns:xlink="http://www.w3.org/1999/xlink" fill="none" version="1.1" width="29.0908203125" height="20" viewBox="0 0 29.0908203125 20"><g><g><g><path d="M27.8545,1.92727C27.0655,0.523636,26.2091,0.265455,24.4655,0.167273C22.7236,0.0490909,18.3436,0,14.5491,0C10.7473,0,6.36545,0.0490911,4.62545,0.165455C2.88545,0.265455,2.02727,0.521818,1.23091,1.92727C0.418182,3.32909,0,5.74364,0,9.99455C0,9.99818,0,10,0,10C0,10.0036,0,10.0055,0,10.0055C0,10.0055,0,10.0091,0,10.0091C0,14.2418,0.418182,16.6745,1.23091,18.0618C2.02727,19.4655,2.88364,19.72,4.62364,19.8382C6.36545,19.94,10.7473,20,14.5491,20C18.3436,20,22.7236,19.94,24.4673,19.84C26.2109,19.7218,27.0673,19.4673,27.8564,18.0636C28.6764,16.6764,29.0909,14.2436,29.0909,10.0109C29.0909,10.0109,29.0909,10.0055,29.0909,10.0018C29.0909,10.0018,29.0909,9.99818,29.0909,9.99636C29.0909,5.74364,28.6764,3.32909,27.8545,1.92727C27.8545,1.92727,27.8545,1.92727,27.8545,1.92727ZM10.9091,15.4545C10.9091,15.4545,10.9091,4.54545,10.9091,4.54545C10.9091,4.54545,20,10,20,10C20,10,10.9091,15.4545,10.9091,15.4545C10.9091,15.4545,10.9091,15.4545,10.9091,15.4545Z" fill="#FBCC04" fill-opacity="1"/></g></g></g></svg>